<svg width="50" height="50" viewBox="0 0 50 50" fill="none" xmlns="http://www.w3.org/2000/svg">
<g clip-path="url(#clip0_17_32237)">
<circle cx="25" cy="25" r="25" fill="white"/>
<circle cx="25" cy="25" r="16" fill="#EEEEEE"/>
<circle cx="20" cy="21" r="2" fill="#333333"/>
<circle cx="30" cy="21" r="2" fill="#333333"/>
<mask id="path-5-outside-1_17_32237" maskUnits="userSpaceOnUse" x="17" y="26" width="16" height="8" fill="black">
<rect fill="white" x="17" y="26" width="16" height="8"/>
<path d="M31.8309 27.5294C31.4832 29.0821 30.6169 30.4701 29.3748 31.4645C28.1326 32.459 26.5887 33.0006 24.9976 33C23.4064 32.9994 21.8629 32.4568 20.6214 31.4615C19.3799 30.4662 18.5146 29.0776 18.168 27.5246L18.2364 27.5094C18.5795 29.0468 19.4361 30.4215 20.6652 31.4069C21.8942 32.3922 23.4223 32.9294 24.9976 32.93C26.5728 32.9306 28.1013 32.3944 29.331 31.4099C30.5608 30.4254 31.4184 29.0513 31.7626 27.5141L31.8309 27.5294Z"/>
</mask>
<path d="M31.8309 27.5294C31.4832 29.0821 30.6169 30.4701 29.3748 31.4645C28.1326 32.459 26.5887 33.0006 24.9976 33C23.4064 32.9994 21.8629 32.4568 20.6214 31.4615C19.3799 30.4662 18.5146 29.0776 18.168 27.5246L18.2364 27.5094C18.5795 29.0468 19.4361 30.4215 20.6652 31.4069C21.8942 32.3922 23.4223 32.9294 24.9976 32.93C26.5728 32.9306 28.1013 32.3944 29.331 31.4099C30.5608 30.4254 31.4184 29.0513 31.7626 27.5141L31.8309 27.5294Z" fill="#333333"/>
<path d="M31.8309 27.5294C31.4832 29.0821 30.6169 30.4701 29.3748 31.4645C28.1326 32.459 26.5887 33.0006 24.9976 33C23.4064 32.9994 21.8629 32.4568 20.6214 31.4615C19.3799 30.4662 18.5146 29.0776 18.168 27.5246L18.2364 27.5094C18.5795 29.0468 19.4361 30.4215 20.6652 31.4069C21.8942 32.3922 23.4223 32.9294 24.9976 32.93C26.5728 32.9306 28.1013 32.3944 29.331 31.4099C30.5608 30.4254 31.4184 29.0513 31.7626 27.5141L31.8309 27.5294Z" stroke="#333333" stroke-width="2" stroke-linejoin="round" mask="url(#path-5-outside-1_17_32237)"/>
</g>
<defs>
<clipPath id="clip0_17_32237">
<rect width="50" height="50" fill="white"/>
</clipPath>
</defs>
</svg>
